<svg version="1.1" id="Calque_1" xmlns="http://www.w3.org/2000/svg" xmlns:xlink="http://www.w3.org/1999/xlink" x="0px" y="0px" viewBox="0 0 32 32" style="enable-background:new 0 0 32 32;" xml:space="preserve">
<style type="text/css">
	.st0{fill:#009CDE;}
	.st1{fill:#FDC605;}
	.st2{fill:#152342;}
	.st3{fill:#C3C3C3;}
	.st4{fill:#5165F5;}
</style>
<g>
	<polygon class="st0" points="16,10.9 20.4,13.4 20.4,13.4 29.3,8.3 16,0.6 16,10.9  "/>
	<polygon class="st1" points="11.6,13.4 16,10.9 16,10.9 16,0.6 2.7,8.3 11.6,13.4  "/>
	<polygon class="st2" points="11.6,13.4 11.6,13.4 2.7,8.3 2.7,23.7 11.6,18.6  "/>
	<path class="st3" d="M20.4,18.6L20.4,18.6L16,21.1l0,0v10.3l13.3-7.7C29.3,23.7,24.4,20.8,20.4,18.6z"/>
	<g>
		<path class="st4" d="M16,21.1l-4.4-2.6v0c-3.9,2.2-8.9,5.1-8.9,5.1L16,31.4V21.1L16,21.1z"/>
	</g>
</g>
</svg>